<svg height="100%" stroke-miterlimit="10"
     style="fill-rule:nonzero;clip-rule:evenodd;stroke-linecap:round;stroke-linejoin:round;" version="1.1"
     viewBox="138.699 101.082 142.233 107.626" width="100%" xml:space="preserve" xmlns="http://www.w3.org/2000/svg"
>
<defs/>
<clipPath id="ArtboardFrame">
<rect height="107.626" width="142.233" x="138.699" y="101.082"/>
</clipPath>
<g clip-path="url(#ArtboardFrame)" id="Layer">
<g opacity="1">
<path d="M173.023 110.423C172.467 113.412 173.588 133.823 180.837 145.051C188.086 156.28 187.32 154.786 185.532 148.482C183.744 142.179 183.426 137.049 185.521 140.789C188.026 145.262 191.796 146.502 193.959 147.061C196.121 147.619 190.055 141.649 182.532 129.711C175.008 117.774 173.579 107.434 173.023 110.423Z" fill="black" fill-rule="nonzero" opacity="1" stroke="none"/>
<path d="M174.219 101.861C178.402 106.381 190.996 115.357 194.85 116.921C200.559 119.238 205.641 122.714 207.438 123.663C209.326 124.66 225.776 126.097 235.957 128.421C249.474 131.506 260.736 134.544 266.988 149.158C271.721 160.224 281.333 164.645 280.919 165.248C280.504 165.85 277.869 165.578 276.222 166.012C274.575 166.447 270.836 167.024 268.482 164.699C266.128 162.374 260.149 152.666 258.204 149.176C254.809 143.084 244.339 137.255 233.297 136.175C210.263 133.923 205.304 131.53 205.304 131.53C205.304 131.53 211.889 138.794 220.277 141.617C228.665 144.441 221.784 143.305 217.003 142.519C212.222 141.733 202.748 136.964 191.974 126.268C181.2 115.572 169.776 97.0611 174.219 101.861Z" fill="#black" fill-rule="nonzero" opacity="1" stroke="none"/>
<path d="M204.484 106.62C204.484 106.62 207.885 112.569 211.944 116.94C215.859 121.155 216.504 122.154 224.331 123.093C234.863 124.355 232.979 125.119 227.081 121.423C221.184 117.726 205.009 106.896 204.484 106.62Z" fill="#black" fill-rule="nonzero" opacity="1" stroke="none"/>
<path d="M249.719 152.903C253.264 155.106 253.443 157.965 254.813 159.111C256.183 160.257 256.556 161.949 254.809 161.17C253.061 160.39 250.93 161.872 246.871 159.546C242.812 157.22 242.521 153.707 240.81 152.653C239.1 151.599 238.195 149.451 240.877 150.476C243.56 151.502 246.175 150.7 249.719 152.903Z" fill="#black" fill-rule="nonzero" opacity="1" stroke="none"/>
<path d="M275.083 170.107C278.6 170.699 281.136 167.931 278.339 171.809C275.541 175.688 274.132 180.699 272.905 182.748C271.679 184.797 266.137 190.913 259.789 190.654C253.441 190.395 249.715 188.342 248.225 188.286C246.736 188.229 251.662 187.783 255.928 186.954C260.194 186.125 261.586 183.18 263.45 183.102C265.314 183.024 252.274 181.702 242.726 183.479C233.178 185.256 222.318 189.408 217.34 193.416C212.362 197.423 218.842 190.843 223.642 187.071C227.925 183.705 247.583 172.04 262.98 174.013C275.127 175.57 274.041 175.626 272.35 172.28C270.66 168.933 269.491 169.166 275.083 170.107Z" fill="#black" fill-rule="nonzero" opacity="1" stroke="none"/>
<path d="M173.162 208.325C176.12 207.869 191.389 201.786 199.096 188.842C205.937 177.353 215.207 163.351 228.068 161.368C219.251 163.014 208.544 180.554 203.762 190.159C193.041 211.697 170.205 208.781 173.162 208.325Z" fill="#black" fill-rule="nonzero" opacity="1" stroke="none"/>
<path d="M139.118 203.864C143.686 203.864 168.132 198.238 182.768 180.506C195.758 164.767 212.997 145.801 232.858 145.801C219.175 146.233 198.946 170.201 189.5 183.577C168.319 213.572 134.551 203.864 139.118 203.864Z" fill="#black" fill-rule="nonzero" opacity="1" stroke="none"/>
</g>
</g>
</svg>
