<svg viewBox="0 0 400 400" xmlns="http://www.w3.org/2000/svg">
<defs>
<linearGradient gradientTransform="matrix(-402.156 331.068 -331.068 -402.156 400.906 68.2727)" gradientUnits="userSpaceOnUse" id="LinearGradient" x1="0" x2="1" y1="0" y2="0">
<stop offset="0" stop-color="#005b7b"/>
<stop offset="1" stop-color="#012234"/>
</linearGradient>
<linearGradient gradientTransform="matrix(-400.977 337.985 -339.226 -402.449 402.579 61.2215)" gradientUnits="userSpaceOnUse" id="LinearGradient_2" x1="0" x2="1" y1="0" y2="0">
<stop offset="0" stop-color="#005b7b"/>
<stop offset="1" stop-color="#012234"/>
</linearGradient>
</defs>
<clipPath id="ArtboardFrame">
<rect height="400" width="400" x="0" y="0"/>
</clipPath>
<g clip-path="url(#ArtboardFrame)" id="TaskLynx">
<g opacity="1">
<path d="M0-0.00272475L400-0.00272475L400 399.997L0 399.997L0-0.00272475Z" fill="url(#LinearGradient)" fill-rule="nonzero" opacity="0" stroke="none"/>
<path d="M1.45328e-14 199.997C1.45328e-14 89.5403 89.5431-0.00272475 200-0.00272475C310.457-0.00272475 400 89.5403 400 199.997C400 310.454 310.457 399.997 200 399.997C89.5431 399.997 1.45328e-14 310.454 1.45328e-14 199.997Z" fill="url(#LinearGradient_2)" fill-rule="nonzero" opacity="1" stroke="none"/>
</g>
<g opacity="1">
<g opacity="1">
<g opacity="1">
<path d="M104.563 126.015C100.361 127.38 98.1006 131.913 99.4658 136.115L119.832 198.796C121.197 202.998 125.671 205.277 129.873 203.912C129.873 203.912 131.039 203.908 131.599 202.425C132.187 200.867 132.774 198.931 135.307 198.894C139.874 198.827 164.301 193.228 178.928 175.487C180.355 173.757 181.695 172.446 183.484 170.195C184.194 169.302 176.976 150.164 176.976 150.164C176.614 149.438 176.03 148.412 175.796 148.05C171.777 141.832 171.26 138.008 169.54 127.279C168.594 122.938 165.445 114.677 165.445 114.677C164.421 111.526 161.636 109.438 158.53 109.17C157.495 109.08 156.435 109.16 155.385 109.502L140.435 114.359C139.242 114.747 138.583 116.04 138.971 117.234C139.357 118.422 138.722 119.706 137.536 120.098L125.281 124.146C124.067 124.548 122.791 123.868 122.396 122.652C122.003 121.44 120.704 120.803 119.492 121.197L104.563 126.015ZM114.32 139.865C114.541 139.712 114.736 139.668 114.953 139.791C116.407 140.61 115.395 143.863 114.999 145.493C114.037 149.455 113.576 155.955 112.021 156.351C110.722 156.682 106.538 151.183 106.378 149.904C106.141 148.017 110.251 152.376 110.74 152.003C111.708 151.265 111.896 147.791 112.536 144.486C113.025 141.959 113.657 140.325 114.32 139.865ZM123.46 142.711C129.214 140.874 133.038 140.541 140.233 138.411C147.428 136.282 146.12 136.256 152.242 134.213C158.364 132.171 164.695 130.266 164.695 130.266C166.195 129.787 167.808 130.621 168.288 132.122C168.767 133.622 167.962 135.226 166.462 135.705C166.462 135.705 160.388 137.566 154.307 139.556C148.226 141.546 149.395 141.441 142.101 143.653C134.806 145.866 130.942 146.556 125.116 148.416C125.116 148.416 120.084 150.548 118.852 150.879C116.652 151.469 115.747 150.553 115.268 149.053C114.789 147.553 115.895 146.548 117.105 145.4C117.105 145.4 117.705 144.549 123.46 142.711ZM119.803 157.043C120.024 156.889 120.248 156.836 120.466 156.959C121.92 157.778 120.857 161.08 120.462 162.71C119.5 166.672 119.099 173.153 117.543 173.549C116.244 173.88 112.001 168.401 111.84 167.121C111.604 165.235 115.773 169.573 116.262 169.201C117.23 168.463 117.349 164.978 117.989 161.674C118.478 159.146 119.14 157.502 119.803 157.043ZM163.409 148.657C169.163 146.82 170.11 147.236 170.11 147.236C171.67 147.303 173.214 147.561 173.693 149.062C174.172 150.562 174.012 151.881 171.877 152.675C170.681 153.119 165.293 154.255 165.293 154.255C159.467 156.115 155.951 157.773 148.725 160.197C141.498 162.622 142.531 162.095 136.422 163.997C130.313 165.9 124.267 167.848 124.267 167.848C122.767 168.327 121.153 167.493 120.674 165.993C120.195 164.493 121.02 162.849 122.52 162.37C122.52 162.37 128.838 160.326 135.011 158.443C141.184 156.559 140.156 157.293 147.253 154.859C154.35 152.425 157.654 150.495 163.409 148.657ZM125.673 175.31C125.894 175.157 126.059 175.123 126.276 175.246C127.73 176.065 126.727 179.348 126.332 180.978C125.37 184.939 124.899 191.41 123.344 191.806C122.045 192.137 117.851 186.708 117.69 185.429C117.453 183.542 121.583 187.86 122.072 187.488C123.04 186.75 123.219 183.246 123.859 179.941C124.348 177.414 125.009 175.77 125.673 175.31ZM128.544 181.113C131.215 180.327 130.441 181.319 136.196 179.481C141.95 177.644 144.764 177.05 151.673 174.124C158.144 171.384 158.321 171.886 164.444 169.843C170.566 167.801 172.415 166.986 176.134 165.979C176.648 165.84 177.064 165.78 177.46 165.811C178.647 165.903 179.358 166.68 179.717 167.805C180.196 169.305 180.301 170.397 177.832 171.407C174.164 172.909 171.741 172.912 165.66 174.902C159.579 176.892 161.093 177.09 153.915 179.507C146.057 182.154 143.748 183.139 137.923 184.999C137.923 184.999 133.026 186.421 130.222 186.581C128.179 186.698 127.177 186.236 126.698 184.736C126.219 183.236 126.817 181.621 128.544 181.113Z" fill="#ffffff" fill-rule="nonzero" opacity="1" stroke="none"/>
<path d="M128.393 111.582C127.129 112.001 126.441 113.351 126.86 114.615C126.867 114.638 126.899 114.64 126.907 114.663L123.613 115.745C123.103 115.914 122.823 116.463 122.992 116.973L124.302 120.865C124.471 121.375 125.011 121.626 125.521 121.457L136.472 117.861C136.983 117.692 137.253 117.114 137.084 116.603L135.784 112.741C135.615 112.231 135.066 111.951 134.555 112.12L131.435 113.145C131.43 113.131 131.458 113.12 131.454 113.106C131.036 111.842 129.657 111.164 128.393 111.582Z" fill="#ffffff" fill-rule="nonzero" opacity="1" stroke="none"/>
</g>
<g opacity="1">
<path d="M173.023 110.423C172.467 113.412 173.588 133.823 180.837 145.051C188.086 156.28 187.32 154.786 185.532 148.482C183.744 142.179 183.426 137.049 185.521 140.789C188.026 145.262 191.796 146.502 193.959 147.061C196.121 147.619 190.055 141.649 182.532 129.711C175.008 117.774 173.579 107.434 173.023 110.423Z" fill="#ffffff" fill-rule="nonzero" opacity="1" stroke="none"/>
<path d="M174.219 101.861C178.402 106.381 190.996 115.357 194.85 116.921C200.559 119.238 205.641 122.714 207.438 123.663C209.326 124.66 225.776 126.097 235.957 128.421C249.474 131.506 260.736 134.544 266.988 149.158C271.721 160.224 281.333 164.645 280.919 165.248C280.504 165.85 277.869 165.578 276.222 166.012C274.575 166.447 270.836 167.024 268.482 164.699C266.128 162.374 260.149 152.666 258.204 149.176C254.809 143.084 244.339 137.255 233.297 136.175C210.263 133.923 205.304 131.53 205.304 131.53C205.304 131.53 211.889 138.794 220.277 141.617C228.665 144.441 221.784 143.305 217.003 142.519C212.222 141.733 202.748 136.964 191.974 126.268C181.2 115.572 169.776 97.0611 174.219 101.861Z" fill="#ffffff" fill-rule="nonzero" opacity="1" stroke="none"/>
<path d="M204.484 106.62C204.484 106.62 207.885 112.569 211.944 116.94C215.859 121.155 216.504 122.154 224.331 123.093C234.863 124.355 232.979 125.119 227.081 121.423C221.184 117.726 205.009 106.896 204.484 106.62Z" fill="#ffffff" fill-rule="nonzero" opacity="1" stroke="none"/>
<path d="M249.719 152.903C253.264 155.106 253.443 157.965 254.813 159.111C256.183 160.257 256.556 161.949 254.809 161.17C253.061 160.39 250.93 161.872 246.871 159.546C242.812 157.22 242.521 153.707 240.81 152.653C239.1 151.599 238.195 149.451 240.877 150.476C243.56 151.502 246.175 150.7 249.719 152.903Z" fill="#ffffff" fill-rule="nonzero" opacity="1" stroke="none"/>
<path d="M275.083 170.107C278.6 170.699 281.136 167.931 278.339 171.809C275.541 175.688 274.132 180.699 272.905 182.748C271.679 184.797 266.137 190.913 259.789 190.654C253.441 190.395 249.715 188.342 248.225 188.286C246.736 188.229 251.662 187.783 255.928 186.954C260.194 186.125 261.586 183.18 263.45 183.102C265.314 183.024 252.274 181.702 242.726 183.479C233.178 185.256 222.318 189.408 217.34 193.416C212.362 197.423 218.842 190.843 223.642 187.071C227.925 183.705 247.583 172.04 262.98 174.013C275.127 175.57 274.041 175.626 272.35 172.28C270.66 168.933 269.491 169.166 275.083 170.107Z" fill="#ffffff" fill-rule="nonzero" opacity="1" stroke="none"/>
<path d="M173.162 208.325C176.12 207.869 191.389 201.786 199.096 188.842C205.937 177.353 215.207 163.351 228.068 161.368C219.251 163.014 208.544 180.554 203.762 190.159C193.041 211.697 170.205 208.781 173.162 208.325Z" fill="#ffffff" fill-rule="nonzero" opacity="1" stroke="none"/>
<path d="M139.118 203.864C143.686 203.864 168.132 198.238 182.768 180.506C195.758 164.767 212.997 145.801 232.858 145.801C219.175 146.233 198.946 170.201 189.5 183.577C168.319 213.572 134.551 203.864 139.118 203.864Z" fill="#ffffff" fill-rule="nonzero" opacity="1" stroke="none"/>
</g>
</g>
<g opacity="1">
<g fill="#ffffff" opacity="1" stroke="none">
<path d="M109.668 233.053L118.065 233.053C118.353 233.053 118.595 233.155 118.79 233.359C118.985 233.563 119.082 233.8 119.082 234.07C119.082 234.352 118.985 234.589 118.79 234.781C118.595 234.973 118.353 235.069 118.065 235.069L109.668 235.069C109.398 235.069 109.161 234.967 108.957 234.763C108.753 234.559 108.651 234.322 108.651 234.052C108.651 233.77 108.753 233.533 108.957 233.341C109.161 233.149 109.398 233.053 109.668 233.053ZM113.385 227.959C113.703 227.959 113.961 228.065 114.159 228.278C114.357 228.491 114.456 228.748 114.456 229.048L114.456 247.12C114.456 247.798 114.549 248.303 114.735 248.636C114.921 248.969 115.16 249.188 115.451 249.293C115.742 249.398 116.028 249.451 116.31 249.451C116.508 249.451 116.682 249.419 116.832 249.356C116.982 249.293 117.159 249.262 117.363 249.262C117.573 249.262 117.758 249.35 117.917 249.527C118.076 249.704 118.155 249.925 118.155 250.189C118.155 250.519 117.96 250.796 117.57 251.021C117.18 251.246 116.727 251.359 116.211 251.359C115.977 251.359 115.644 251.344 115.212 251.314C114.78 251.284 114.339 251.152 113.889 250.918C113.439 250.684 113.061 250.28 112.755 249.707C112.449 249.134 112.296 248.305 112.296 247.219L112.296 229.048C112.296 228.748 112.403 228.491 112.616 228.278C112.829 228.065 113.085 227.959 113.385 227.959Z"/>
<path d="M143.162 232.981C143.48 232.981 143.74 233.086 143.941 233.296C144.142 233.506 144.242 233.764 144.242 234.07L144.242 250.27C144.242 250.57 144.137 250.826 143.927 251.039C143.717 251.252 143.462 251.359 143.162 251.359C142.844 251.359 142.585 251.252 142.384 251.039C142.183 250.826 142.082 250.57 142.082 250.27L142.082 245.995L142.712 245.725C142.712 246.379 142.526 247.058 142.154 247.763C141.782 248.468 141.272 249.118 140.624 249.712C139.976 250.306 139.213 250.789 138.334 251.161C137.455 251.533 136.505 251.719 135.485 251.719C133.865 251.719 132.415 251.297 131.134 250.454C129.853 249.611 128.845 248.462 128.11 247.007C127.375 245.552 127.007 243.907 127.007 242.071C127.007 240.211 127.379 238.567 128.123 237.139C128.867 235.711 129.877 234.589 131.152 233.773C132.427 232.957 133.859 232.549 135.449 232.549C136.481 232.549 137.447 232.727 138.347 233.084C139.247 233.441 140.033 233.932 140.705 234.556C141.377 235.18 141.901 235.891 142.276 236.689C142.651 237.487 142.838 238.324 142.838 239.2L142.082 238.642L142.082 234.07C142.082 233.77 142.183 233.513 142.384 233.3C142.585 233.087 142.844 232.981 143.162 232.981ZM135.674 249.703C136.946 249.703 138.077 249.371 139.067 248.708C140.057 248.045 140.833 247.136 141.394 245.981C141.955 244.826 142.235 243.523 142.235 242.071C142.235 240.667 141.955 239.396 141.394 238.259C140.833 237.122 140.057 236.222 139.067 235.559C138.077 234.896 136.946 234.565 135.674 234.565C134.426 234.565 133.307 234.887 132.317 235.532C131.327 236.177 130.547 237.064 129.977 238.192C129.407 239.32 129.122 240.613 129.122 242.071C129.122 243.523 129.403 244.826 129.964 245.981C130.525 247.136 131.3 248.045 132.29 248.708C133.28 249.371 134.408 249.703 135.674 249.703Z"/>
<path d="M153.859 248.452C153.673 248.152 153.588 247.868 153.603 247.601C153.618 247.334 153.763 247.108 154.039 246.922C154.225 246.772 154.449 246.706 154.71 246.724C154.971 246.742 155.206 246.865 155.416 247.093C156.058 247.933 156.84 248.608 157.761 249.118C158.682 249.628 159.781 249.883 161.059 249.883C161.743 249.877 162.414 249.764 163.071 249.545C163.728 249.326 164.272 248.981 164.704 248.51C165.136 248.039 165.352 247.438 165.352 246.706C165.352 245.962 165.136 245.366 164.704 244.919C164.272 244.472 163.713 244.114 163.026 243.844C162.339 243.574 161.608 243.343 160.834 243.151C160.018 242.935 159.229 242.69 158.467 242.417C157.705 242.144 157.027 241.798 156.433 241.378C155.839 240.958 155.365 240.445 155.011 239.839C154.657 239.233 154.48 238.501 154.48 237.643C154.48 236.641 154.753 235.756 155.299 234.988C155.845 234.22 156.594 233.621 157.545 233.192C158.496 232.763 159.568 232.549 160.762 232.549C161.38 232.549 162.034 232.625 162.724 232.778C163.414 232.931 164.095 233.188 164.767 233.548C165.439 233.908 166.045 234.403 166.585 235.033C166.795 235.231 166.902 235.469 166.905 235.748C166.908 236.027 166.783 236.281 166.531 236.509C166.333 236.653 166.111 236.72 165.865 236.711C165.619 236.702 165.412 236.608 165.244 236.428C164.674 235.774 163.993 235.282 163.201 234.952C162.409 234.622 161.551 234.457 160.627 234.457C159.943 234.457 159.292 234.566 158.674 234.785C158.056 235.004 157.546 235.342 157.144 235.798C156.742 236.254 156.541 236.854 156.541 237.598C156.577 238.294 156.816 238.862 157.257 239.303C157.698 239.744 158.287 240.107 159.025 240.392C159.763 240.677 160.588 240.943 161.5 241.189C162.274 241.381 163.011 241.604 163.71 241.859C164.409 242.114 165.03 242.44 165.573 242.836C166.116 243.232 166.548 243.731 166.869 244.334C167.19 244.937 167.35 245.695 167.35 246.607C167.35 247.669 167.058 248.582 166.473 249.347C165.888 250.112 165.105 250.699 164.124 251.107C163.143 251.515 162.052 251.719 160.852 251.719C159.562 251.719 158.308 251.468 157.09 250.967C155.872 250.466 154.795 249.628 153.859 248.452Z"/>
<path d="M178.092 251.359C177.774 251.359 177.515 251.252 177.314 251.039C177.113 250.826 177.012 250.57 177.012 250.27L177.012 225.808C177.012 225.508 177.113 225.251 177.314 225.038C177.515 224.825 177.774 224.719 178.092 224.719C178.41 224.719 178.67 224.825 178.871 225.038C179.072 225.251 179.172 225.508 179.172 225.808L179.172 250.27C179.172 250.57 179.072 250.826 178.871 251.039C178.67 251.252 178.41 251.359 178.092 251.359ZM190.323 232.909C190.605 232.909 190.851 233.02 191.061 233.242C191.271 233.464 191.376 233.71 191.376 233.98C191.376 234.286 191.241 234.556 190.971 234.79L178.893 245.086L178.794 242.548L189.576 233.242C189.798 233.02 190.047 232.909 190.323 232.909ZM190.62 251.35C190.32 251.35 190.053 251.227 189.819 250.981L181.62 242.251L183.249 240.793L191.376 249.469C191.598 249.697 191.709 249.967 191.709 250.279C191.709 250.615 191.576 250.877 191.309 251.066C191.042 251.255 190.812 251.35 190.62 251.35Z"/>
<path d="M203.261 250.27C203.261 250.57 203.155 250.826 202.942 251.039C202.729 251.252 202.472 251.359 202.172 251.359C201.86 251.359 201.604 251.252 201.403 251.039C201.202 250.826 201.101 250.57 201.101 250.27L201.101 225.808C201.101 225.508 201.208 225.251 201.421 225.038C201.634 224.825 201.89 224.719 202.19 224.719C202.508 224.719 202.766 224.825 202.964 225.038C203.162 225.251 203.261 225.508 203.261 225.808L203.261 250.27Z"/>
<path d="M227.323 232.639C227.641 232.639 227.901 232.745 228.102 232.958C228.303 233.171 228.403 233.428 228.403 233.728L228.403 249.595C228.403 251.533 228.021 253.169 227.256 254.504C226.491 255.839 225.457 256.849 224.155 257.533C222.853 258.217 221.374 258.559 219.718 258.559C218.698 258.559 217.752 258.445 216.879 258.217C216.006 257.989 215.293 257.701 214.741 257.353C214.435 257.185 214.212 256.979 214.071 256.736C213.93 256.493 213.916 256.234 214.03 255.958C214.156 255.64 214.347 255.422 214.602 255.305C214.857 255.188 215.113 255.199 215.371 255.337C215.773 255.547 216.363 255.809 217.14 256.124C217.917 256.439 218.794 256.597 219.772 256.597C221.092 256.597 222.235 256.316 223.201 255.755C224.167 255.194 224.917 254.393 225.451 253.352C225.985 252.311 226.252 251.071 226.252 249.631L226.252 247.03L226.495 247.921C226.141 248.659 225.631 249.313 224.965 249.883C224.299 250.453 223.542 250.901 222.693 251.228C221.844 251.555 220.942 251.719 219.988 251.719C218.554 251.719 217.363 251.425 216.415 250.837C215.467 250.249 214.761 249.437 214.296 248.402C213.831 247.367 213.598 246.16 213.598 244.78L213.598 233.728C213.598 233.428 213.699 233.171 213.9 232.958C214.101 232.745 214.36 232.639 214.678 232.639C214.996 232.639 215.256 232.745 215.457 232.958C215.658 233.171 215.758 233.428 215.758 233.728L215.758 244.456C215.758 246.124 216.127 247.415 216.865 248.33C217.603 249.245 218.8 249.703 220.456 249.703C221.476 249.703 222.423 249.46 223.296 248.974C224.169 248.488 224.878 247.841 225.424 247.034C225.97 246.227 226.243 245.368 226.243 244.456L226.243 233.728C226.243 233.428 226.344 233.171 226.545 232.958C226.746 232.745 227.005 232.639 227.323 232.639Z"/>
<path d="M247.758 232.549C249.336 232.549 250.596 232.867 251.538 233.503C252.48 234.139 253.161 234.998 253.581 236.081C254.001 237.164 254.211 238.372 254.211 239.704L254.211 250.27C254.211 250.57 254.106 250.826 253.896 251.039C253.686 251.252 253.431 251.359 253.131 251.359C252.813 251.359 252.554 251.252 252.353 251.039C252.152 250.826 252.051 250.57 252.051 250.27L252.051 239.812C252.051 238.84 251.895 237.959 251.583 237.17C251.271 236.381 250.766 235.75 250.067 235.276C249.368 234.802 248.436 234.565 247.272 234.565C246.24 234.565 245.264 234.802 244.343 235.276C243.422 235.75 242.67 236.381 242.088 237.17C241.506 237.959 241.215 238.84 241.215 239.812L241.215 250.27C241.215 250.57 241.11 250.826 240.9 251.039C240.69 251.252 240.435 251.359 240.135 251.359C239.817 251.359 239.558 251.252 239.357 251.039C239.156 250.826 239.055 250.57 239.055 250.27L239.055 234.16C239.055 233.86 239.16 233.603 239.37 233.39C239.58 233.177 239.835 233.071 240.135 233.071C240.453 233.071 240.713 233.177 240.914 233.39C241.115 233.603 241.215 233.86 241.215 234.16L241.215 237.193L240.405 238.462C240.459 237.712 240.708 236.981 241.152 236.27C241.596 235.559 242.166 234.923 242.862 234.362C243.558 233.801 244.331 233.359 245.18 233.035C246.029 232.711 246.888 232.549 247.758 232.549Z"/>
<path d="M264.368 232.774C264.722 232.774 265.013 232.93 265.241 233.242L277.994 249.748C278.144 249.934 278.219 250.15 278.219 250.396C278.219 250.69 278.113 250.945 277.9 251.161C277.687 251.377 277.439 251.485 277.157 251.485C276.821 251.485 276.521 251.326 276.257 251.008L263.477 234.529C263.327 234.343 263.252 234.127 263.252 233.881C263.252 233.563 263.366 233.299 263.594 233.089C263.822 232.879 264.08 232.774 264.368 232.774ZM264.377 251.476C264.131 251.476 263.896 251.389 263.671 251.215C263.446 251.041 263.333 250.798 263.333 250.486C263.333 250.24 263.414 250.018 263.576 249.82L269.678 242.008L270.866 243.745L265.241 251.035C265.019 251.329 264.731 251.476 264.377 251.476ZM277.148 232.774C277.472 232.774 277.724 232.868 277.904 233.057C278.084 233.246 278.174 233.467 278.174 233.719C278.174 233.833 278.152 233.951 278.107 234.074C278.062 234.197 277.997 234.313 277.913 234.421L271.829 242.395L270.695 240.667L276.257 233.26C276.521 232.936 276.818 232.774 277.148 232.774Z"/>
</g>
<g opacity="1">
<g fill="#b2ebff" opacity="0" stroke="none">
<path d="M142.213 278.708C143.205 278.708 144.056 278.968 144.766 279.488C145.476 280.008 145.957 280.78 146.209 281.804L145.873 281.912L146.011 281.474C146.215 280.986 146.562 280.533 147.052 280.115C147.542 279.697 148.101 279.358 148.729 279.098C149.357 278.838 149.987 278.708 150.619 278.708C151.627 278.708 152.44 278.926 153.058 279.362C153.676 279.798 154.124 280.38 154.402 281.108C154.68 281.836 154.819 282.656 154.819 283.568L154.819 290.342C154.819 290.542 154.752 290.713 154.618 290.855C154.484 290.997 154.311 291.068 154.099 291.068C153.887 291.068 153.714 290.997 153.58 290.855C153.446 290.713 153.379 290.542 153.379 290.342L153.379 283.64C153.379 282.98 153.276 282.378 153.07 281.834C152.864 281.29 152.536 280.857 152.086 280.535C151.636 280.213 151.039 280.052 150.295 280.052C149.627 280.052 148.993 280.213 148.393 280.535C147.793 280.857 147.307 281.29 146.935 281.834C146.563 282.378 146.377 282.98 146.377 283.64L146.377 290.342C146.377 290.542 146.31 290.713 146.176 290.855C146.042 290.997 145.869 291.068 145.657 291.068C145.445 291.068 145.272 290.997 145.138 290.855C145.004 290.713 144.937 290.542 144.937 290.342L144.937 283.55C144.937 282.902 144.84 282.315 144.646 281.789C144.452 281.263 144.139 280.842 143.707 280.526C143.275 280.21 142.693 280.052 141.961 280.052C141.305 280.052 140.686 280.21 140.104 280.526C139.522 280.842 139.048 281.263 138.682 281.789C138.316 282.315 138.133 282.902 138.133 283.55L138.133 290.342C138.133 290.542 138.063 290.713 137.923 290.855C137.783 290.997 137.613 291.068 137.413 291.068C137.201 291.068 137.028 290.997 136.894 290.855C136.76 290.713 136.693 290.542 136.693 290.342L136.693 279.602C136.693 279.402 136.763 279.231 136.903 279.089C137.043 278.947 137.213 278.876 137.413 278.876C137.625 278.876 137.798 278.947 137.932 279.089C138.066 279.231 138.133 279.402 138.133 279.602L138.133 281.822L137.503 282.722C137.539 282.234 137.691 281.753 137.959 281.279C138.227 280.805 138.578 280.375 139.012 279.989C139.446 279.603 139.938 279.293 140.488 279.059C141.038 278.825 141.613 278.708 142.213 278.708Z"/>
<path d="M178.017 284.93C178.017 286.146 177.752 287.236 177.222 288.2C176.692 289.164 175.971 289.923 175.059 290.477C174.147 291.031 173.113 291.308 171.957 291.308C170.813 291.308 169.782 291.031 168.864 290.477C167.946 289.923 167.219 289.164 166.683 288.2C166.147 287.236 165.879 286.146 165.879 284.93C165.879 283.702 166.147 282.606 166.683 281.642C167.219 280.678 167.946 279.918 168.864 279.362C169.782 278.806 170.813 278.528 171.957 278.528C173.113 278.528 174.147 278.806 175.059 279.362C175.971 279.918 176.692 280.678 177.222 281.642C177.752 282.606 178.017 283.702 178.017 284.93ZM176.577 284.93C176.577 283.946 176.377 283.076 175.977 282.32C175.577 281.564 175.029 280.967 174.333 280.529C173.637 280.091 172.845 279.872 171.957 279.872C171.081 279.872 170.292 280.091 169.59 280.529C168.888 280.967 168.334 281.564 167.928 282.32C167.522 283.076 167.319 283.946 167.319 284.93C167.319 285.898 167.522 286.76 167.928 287.516C168.334 288.272 168.888 288.869 169.59 289.307C170.292 289.745 171.081 289.964 171.957 289.964C172.845 289.964 173.637 289.745 174.333 289.307C175.029 288.869 175.577 288.272 175.977 287.516C176.377 286.76 176.577 285.898 176.577 284.93Z"/>
<path d="M194.915 278.528C195.999 278.528 196.964 278.8 197.81 279.344C198.656 279.888 199.327 280.635 199.823 281.585C200.319 282.535 200.567 283.63 200.567 284.87C200.567 286.098 200.319 287.197 199.823 288.167C199.327 289.137 198.655 289.903 197.807 290.465C196.959 291.027 196.003 291.308 194.939 291.308C194.383 291.308 193.852 291.222 193.346 291.05C192.84 290.878 192.378 290.641 191.96 290.339C191.542 290.037 191.175 289.686 190.859 289.286C190.543 288.886 190.289 288.46 190.097 288.008L190.517 287.678L190.517 290.402C190.517 290.602 190.45 290.773 190.316 290.915C190.182 291.057 190.009 291.128 189.797 291.128C189.597 291.128 189.427 291.058 189.287 290.918C189.147 290.778 189.077 290.606 189.077 290.402L189.077 274.052C189.077 273.852 189.144 273.681 189.278 273.539C189.412 273.397 189.585 273.326 189.797 273.326C190.009 273.326 190.182 273.397 190.316 273.539C190.45 273.681 190.517 273.852 190.517 274.052L190.517 282.092L190.181 281.912C190.349 281.416 190.587 280.963 190.895 280.553C191.203 280.143 191.567 279.787 191.987 279.485C192.407 279.183 192.866 278.948 193.364 278.78C193.862 278.612 194.379 278.528 194.915 278.528ZM194.789 279.872C193.929 279.872 193.172 280.087 192.518 280.517C191.864 280.947 191.35 281.537 190.976 282.287C190.602 283.037 190.415 283.898 190.415 284.87C190.415 285.838 190.602 286.708 190.976 287.48C191.35 288.252 191.864 288.859 192.518 289.301C193.172 289.743 193.929 289.964 194.789 289.964C195.637 289.964 196.387 289.74 197.039 289.292C197.691 288.844 198.207 288.234 198.587 287.462C198.967 286.69 199.157 285.826 199.157 284.87C199.157 283.898 198.967 283.037 198.587 282.287C198.207 281.537 197.691 280.947 197.039 280.517C196.387 280.087 195.637 279.872 194.789 279.872Z"/>
<path d="M213.031 290.348C213.031 290.54 212.959 290.708 212.815 290.852C212.671 290.996 212.503 291.068 212.311 291.068C212.103 291.068 211.931 290.996 211.795 290.852C211.659 290.708 211.591 290.54 211.591 290.348L211.591 279.308C211.591 279.116 211.659 278.948 211.795 278.804C211.931 278.66 212.103 278.588 212.311 278.588C212.519 278.588 212.691 278.66 212.827 278.804C212.963 278.948 213.031 279.116 213.031 279.308L213.031 290.348ZM212.311 276.98C211.975 276.98 211.723 276.904 211.555 276.752C211.387 276.6 211.303 276.38 211.303 276.092L211.303 275.852C211.303 275.564 211.395 275.344 211.579 275.192C211.763 275.04 212.015 274.964 212.335 274.964C212.639 274.964 212.875 275.04 213.043 275.192C213.211 275.344 213.295 275.564 213.295 275.852L213.295 276.092C213.295 276.38 213.211 276.6 213.043 276.752C212.875 276.904 212.631 276.98 212.311 276.98Z"/>
<path d="M226.341 290.342C226.341 290.542 226.27 290.713 226.128 290.855C225.986 290.997 225.815 291.068 225.615 291.068C225.407 291.068 225.236 290.997 225.102 290.855C224.968 290.713 224.901 290.542 224.901 290.342L224.901 274.034C224.901 273.834 224.972 273.663 225.114 273.521C225.256 273.379 225.427 273.308 225.627 273.308C225.839 273.308 226.011 273.379 226.143 273.521C226.275 273.663 226.341 273.834 226.341 274.034L226.341 290.342Z"/>
<path d="M243.581 291.308C242.341 291.308 241.251 291.045 240.311 290.519C239.371 289.993 238.636 289.257 238.106 288.311C237.576 287.365 237.311 286.264 237.311 285.008C237.311 283.64 237.579 282.475 238.115 281.513C238.651 280.551 239.346 279.813 240.2 279.299C241.054 278.785 241.961 278.528 242.921 278.528C243.629 278.528 244.314 278.651 244.976 278.897C245.638 279.143 246.228 279.51 246.746 279.998C247.264 280.486 247.681 281.081 247.997 281.783C248.313 282.485 248.483 283.298 248.507 284.222C248.503 284.414 248.429 284.579 248.285 284.717C248.141 284.855 247.973 284.924 247.781 284.924L238.145 284.924L237.857 283.64L247.313 283.64L247.001 283.922L247.001 283.436C246.933 282.684 246.691 282.046 246.275 281.522C245.859 280.998 245.356 280.598 244.766 280.322C244.176 280.046 243.561 279.908 242.921 279.908C242.441 279.908 241.951 280.005 241.451 280.199C240.951 280.393 240.495 280.693 240.083 281.099C239.671 281.505 239.338 282.024 239.084 282.656C238.83 283.288 238.703 284.038 238.703 284.906C238.703 285.854 238.895 286.709 239.279 287.471C239.663 288.233 240.217 288.839 240.941 289.289C241.665 289.739 242.533 289.964 243.545 289.964C244.101 289.964 244.603 289.883 245.051 289.721C245.499 289.559 245.894 289.347 246.236 289.085C246.578 288.823 246.861 288.548 247.085 288.26C247.253 288.116 247.423 288.044 247.595 288.044C247.767 288.044 247.912 288.107 248.03 288.233C248.148 288.359 248.207 288.504 248.207 288.668C248.207 288.86 248.127 289.03 247.967 289.178C247.491 289.746 246.868 290.243 246.098 290.669C245.328 291.095 244.489 291.308 243.581 291.308Z"/>
</g>
<g fill="#b2ebff" opacity="1" stroke="none">
<path d="M124.7 278.528C125.784 278.528 126.749 278.8 127.595 279.344C128.441 279.888 129.112 280.635 129.608 281.585C130.104 282.535 130.352 283.63 130.352 284.87C130.352 286.098 130.104 287.197 129.608 288.167C129.112 289.137 128.44 289.903 127.592 290.465C126.744 291.027 125.788 291.308 124.724 291.308C124.168 291.308 123.637 291.222 123.131 291.05C122.625 290.878 122.163 290.641 121.745 290.339C121.327 290.037 120.96 289.686 120.644 289.286C120.328 288.886 120.074 288.46 119.882 288.008L120.302 287.678L120.302 290.402C120.302 290.602 120.235 290.773 120.101 290.915C119.967 291.057 119.794 291.128 119.582 291.128C119.382 291.128 119.212 291.058 119.072 290.918C118.932 290.778 118.862 290.606 118.862 290.402L118.862 274.052C118.862 273.852 118.929 273.681 119.063 273.539C119.197 273.397 119.37 273.326 119.582 273.326C119.794 273.326 119.967 273.397 120.101 273.539C120.235 273.681 120.302 273.852 120.302 274.052L120.302 282.092L119.966 281.912C120.134 281.416 120.372 280.963 120.68 280.553C120.988 280.143 121.352 279.787 121.772 279.485C122.192 279.183 122.651 278.948 123.149 278.78C123.647 278.612 124.164 278.528 124.7 278.528ZM124.574 279.872C123.714 279.872 122.957 280.087 122.303 280.517C121.649 280.947 121.135 281.537 120.761 282.287C120.387 283.037 120.2 283.898 120.2 284.87C120.2 285.838 120.387 286.708 120.761 287.48C121.135 288.252 121.649 288.859 122.303 289.301C122.957 289.743 123.714 289.964 124.574 289.964C125.422 289.964 126.172 289.74 126.824 289.292C127.476 288.844 127.992 288.234 128.372 287.462C128.752 286.69 128.942 285.826 128.942 284.87C128.942 283.898 128.752 283.037 128.372 282.287C127.992 281.537 127.476 280.947 126.824 280.517C126.172 280.087 125.422 279.872 124.574 279.872Z"/>
<path d="M150.58 278.876C150.792 278.876 150.965 278.947 151.099 279.089C151.233 279.231 151.3 279.402 151.3 279.602L151.3 286.364C151.3 287.952 150.855 289.161 149.965 289.991C149.075 290.821 147.868 291.236 146.344 291.236C144.832 291.236 143.632 290.821 142.744 289.991C141.856 289.161 141.412 287.952 141.412 286.364L141.412 279.602C141.412 279.402 141.482 279.231 141.622 279.089C141.762 278.947 141.932 278.876 142.132 278.876C142.344 278.876 142.517 278.947 142.651 279.089C142.785 279.231 142.852 279.402 142.852 279.602L142.852 286.364C142.852 287.52 143.161 288.397 143.779 288.995C144.397 289.593 145.252 289.892 146.344 289.892C147.452 289.892 148.315 289.593 148.933 288.995C149.551 288.397 149.86 287.52 149.86 286.364L149.86 279.602C149.86 279.402 149.927 279.231 150.061 279.089C150.195 278.947 150.368 278.876 150.58 278.876Z"/>
<path d="M162.378 289.13C162.254 288.93 162.197 288.741 162.207 288.563C162.217 288.385 162.314 288.234 162.498 288.11C162.622 288.01 162.771 287.966 162.945 287.978C163.119 287.99 163.276 288.072 163.416 288.224C163.844 288.784 164.365 289.234 164.979 289.574C165.593 289.914 166.326 290.084 167.178 290.084C167.634 290.08 168.081 290.005 168.519 289.859C168.957 289.713 169.32 289.483 169.608 289.169C169.896 288.855 170.04 288.454 170.04 287.966C170.04 287.47 169.896 287.073 169.608 286.775C169.32 286.477 168.947 286.238 168.489 286.058C168.031 285.878 167.544 285.724 167.028 285.596C166.484 285.452 165.958 285.289 165.45 285.107C164.942 284.925 164.49 284.694 164.094 284.414C163.698 284.134 163.382 283.792 163.146 283.388C162.91 282.984 162.792 282.496 162.792 281.924C162.792 281.256 162.974 280.666 163.338 280.154C163.702 279.642 164.201 279.243 164.835 278.957C165.469 278.671 166.184 278.528 166.98 278.528C167.392 278.528 167.828 278.579 168.288 278.681C168.748 278.783 169.202 278.954 169.65 279.194C170.098 279.434 170.502 279.764 170.862 280.184C171.002 280.316 171.073 280.475 171.075 280.661C171.077 280.847 170.994 281.016 170.826 281.168C170.694 281.264 170.546 281.309 170.382 281.303C170.218 281.297 170.08 281.234 169.968 281.114C169.588 280.678 169.134 280.35 168.606 280.13C168.078 279.91 167.506 279.8 166.89 279.8C166.434 279.8 166 279.873 165.588 280.019C165.176 280.165 164.836 280.39 164.568 280.694C164.3 280.998 164.166 281.398 164.166 281.894C164.19 282.358 164.349 282.737 164.643 283.031C164.937 283.325 165.33 283.567 165.822 283.757C166.314 283.947 166.864 284.124 167.472 284.288C167.988 284.416 168.479 284.565 168.945 284.735C169.411 284.905 169.825 285.122 170.187 285.386C170.549 285.65 170.837 285.983 171.051 286.385C171.265 286.787 171.372 287.292 171.372 287.9C171.372 288.608 171.177 289.217 170.787 289.727C170.397 290.237 169.875 290.628 169.221 290.9C168.567 291.172 167.84 291.308 167.04 291.308C166.18 291.308 165.344 291.141 164.532 290.807C163.72 290.473 163.002 289.914 162.378 289.13Z"/>
<path d="M183.734 290.348C183.734 290.54 183.662 290.708 183.518 290.852C183.374 290.996 183.206 291.068 183.014 291.068C182.806 291.068 182.634 290.996 182.498 290.852C182.362 290.708 182.294 290.54 182.294 290.348L182.294 279.308C182.294 279.116 182.362 278.948 182.498 278.804C182.634 278.66 182.806 278.588 183.014 278.588C183.222 278.588 183.394 278.66 183.53 278.804C183.666 278.948 183.734 279.116 183.734 279.308L183.734 290.348ZM183.014 276.98C182.678 276.98 182.426 276.904 182.258 276.752C182.09 276.6 182.006 276.38 182.006 276.092L182.006 275.852C182.006 275.564 182.098 275.344 182.282 275.192C182.466 275.04 182.718 274.964 183.038 274.964C183.342 274.964 183.578 275.04 183.746 275.192C183.914 275.344 183.998 275.564 183.998 275.852L183.998 276.092C183.998 276.38 183.914 276.6 183.746 276.752C183.578 276.904 183.334 276.98 183.014 276.98Z"/>
<path d="M201.256 278.528C202.308 278.528 203.148 278.74 203.776 279.164C204.404 279.588 204.858 280.161 205.138 280.883C205.418 281.605 205.558 282.41 205.558 283.298L205.558 290.342C205.558 290.542 205.488 290.713 205.348 290.855C205.208 290.997 205.038 291.068 204.838 291.068C204.626 291.068 204.453 290.997 204.319 290.855C204.185 290.713 204.118 290.542 204.118 290.342L204.118 283.37C204.118 282.722 204.014 282.135 203.806 281.609C203.598 281.083 203.261 280.662 202.795 280.346C202.329 280.03 201.708 279.872 200.932 279.872C200.244 279.872 199.593 280.03 198.979 280.346C198.365 280.662 197.864 281.083 197.476 281.609C197.088 282.135 196.894 282.722 196.894 283.37L196.894 290.342C196.894 290.542 196.824 290.713 196.684 290.855C196.544 290.997 196.374 291.068 196.174 291.068C195.962 291.068 195.789 290.997 195.655 290.855C195.521 290.713 195.454 290.542 195.454 290.342L195.454 279.602C195.454 279.402 195.524 279.231 195.664 279.089C195.804 278.947 195.974 278.876 196.174 278.876C196.386 278.876 196.559 278.947 196.693 279.089C196.827 279.231 196.894 279.402 196.894 279.602L196.894 281.624L196.354 282.47C196.39 281.97 196.556 281.483 196.852 281.009C197.148 280.535 197.528 280.111 197.992 279.737C198.456 279.363 198.971 279.068 199.537 278.852C200.103 278.636 200.676 278.528 201.256 278.528Z"/>
<path d="M222.888 291.308C221.648 291.308 220.558 291.045 219.618 290.519C218.678 289.993 217.943 289.257 217.413 288.311C216.883 287.365 216.618 286.264 216.618 285.008C216.618 283.64 216.886 282.475 217.422 281.513C217.958 280.551 218.653 279.813 219.507 279.299C220.361 278.785 221.268 278.528 222.228 278.528C222.936 278.528 223.621 278.651 224.283 278.897C224.945 279.143 225.535 279.51 226.053 279.998C226.571 280.486 226.988 281.081 227.304 281.783C227.62 282.485 227.79 283.298 227.814 284.222C227.81 284.414 227.736 284.579 227.592 284.717C227.448 284.855 227.28 284.924 227.088 284.924L217.452 284.924L217.164 283.64L226.62 283.64L226.308 283.922L226.308 283.436C226.24 282.684 225.998 282.046 225.582 281.522C225.166 280.998 224.663 280.598 224.073 280.322C223.483 280.046 222.868 279.908 222.228 279.908C221.748 279.908 221.258 280.005 220.758 280.199C220.258 280.393 219.802 280.693 219.39 281.099C218.978 281.505 218.645 282.024 218.391 282.656C218.137 283.288 218.01 284.038 218.01 284.906C218.01 285.854 218.202 286.709 218.586 287.471C218.97 288.233 219.524 288.839 220.248 289.289C220.972 289.739 221.84 289.964 222.852 289.964C223.408 289.964 223.91 289.883 224.358 289.721C224.806 289.559 225.201 289.347 225.543 289.085C225.885 288.823 226.168 288.548 226.392 288.26C226.56 288.116 226.73 288.044 226.902 288.044C227.074 288.044 227.219 288.107 227.337 288.233C227.455 288.359 227.514 288.504 227.514 288.668C227.514 288.86 227.434 289.03 227.274 289.178C226.798 289.746 226.175 290.243 225.405 290.669C224.635 291.095 223.796 291.308 222.888 291.308Z"/>
<path d="M238.184 289.13C238.06 288.93 238.003 288.741 238.013 288.563C238.023 288.385 238.12 288.234 238.304 288.11C238.428 288.01 238.577 287.966 238.751 287.978C238.925 287.99 239.082 288.072 239.222 288.224C239.65 288.784 240.171 289.234 240.785 289.574C241.399 289.914 242.132 290.084 242.984 290.084C243.44 290.08 243.887 290.005 244.325 289.859C244.763 289.713 245.126 289.483 245.414 289.169C245.702 288.855 245.846 288.454 245.846 287.966C245.846 287.47 245.702 287.073 245.414 286.775C245.126 286.477 244.753 286.238 244.295 286.058C243.837 285.878 243.35 285.724 242.834 285.596C242.29 285.452 241.764 285.289 241.256 285.107C240.748 284.925 240.296 284.694 239.9 284.414C239.504 284.134 239.188 283.792 238.952 283.388C238.716 282.984 238.598 282.496 238.598 281.924C238.598 281.256 238.78 280.666 239.144 280.154C239.508 279.642 240.007 279.243 240.641 278.957C241.275 278.671 241.99 278.528 242.786 278.528C243.198 278.528 243.634 278.579 244.094 278.681C244.554 278.783 245.008 278.954 245.456 279.194C245.904 279.434 246.308 279.764 246.668 280.184C246.808 280.316 246.879 280.475 246.881 280.661C246.883 280.847 246.8 281.016 246.632 281.168C246.5 281.264 246.352 281.309 246.188 281.303C246.024 281.297 245.886 281.234 245.774 281.114C245.394 280.678 244.94 280.35 244.412 280.13C243.884 279.91 243.312 279.8 242.696 279.8C242.24 279.8 241.806 279.873 241.394 280.019C240.982 280.165 240.642 280.39 240.374 280.694C240.106 280.998 239.972 281.398 239.972 281.894C239.996 282.358 240.155 282.737 240.449 283.031C240.743 283.325 241.136 283.567 241.628 283.757C242.12 283.947 242.67 284.124 243.278 284.288C243.794 284.416 244.285 284.565 244.751 284.735C245.217 284.905 245.631 285.122 245.993 285.386C246.355 285.65 246.643 285.983 246.857 286.385C247.071 286.787 247.178 287.292 247.178 287.9C247.178 288.608 246.983 289.217 246.593 289.727C246.203 290.237 245.681 290.628 245.027 290.9C244.373 291.172 243.646 291.308 242.846 291.308C241.986 291.308 241.15 291.141 240.338 290.807C239.526 290.473 238.808 289.914 238.184 289.13Z"/>
<path d="M257.446 289.13C257.322 288.93 257.265 288.741 257.275 288.563C257.285 288.385 257.382 288.234 257.566 288.11C257.69 288.01 257.839 287.966 258.013 287.978C258.187 287.99 258.344 288.072 258.484 288.224C258.912 288.784 259.433 289.234 260.047 289.574C260.661 289.914 261.394 290.084 262.246 290.084C262.702 290.08 263.149 290.005 263.587 289.859C264.025 289.713 264.388 289.483 264.676 289.169C264.964 288.855 265.108 288.454 265.108 287.966C265.108 287.47 264.964 287.073 264.676 286.775C264.388 286.477 264.015 286.238 263.557 286.058C263.099 285.878 262.612 285.724 262.096 285.596C261.552 285.452 261.026 285.289 260.518 285.107C260.01 284.925 259.558 284.694 259.162 284.414C258.766 284.134 258.45 283.792 258.214 283.388C257.978 282.984 257.86 282.496 257.86 281.924C257.86 281.256 258.042 280.666 258.406 280.154C258.77 279.642 259.269 279.243 259.903 278.957C260.537 278.671 261.252 278.528 262.048 278.528C262.46 278.528 262.896 278.579 263.356 278.681C263.816 278.783 264.27 278.954 264.718 279.194C265.166 279.434 265.57 279.764 265.93 280.184C266.07 280.316 266.141 280.475 266.143 280.661C266.145 280.847 266.062 281.016 265.894 281.168C265.762 281.264 265.614 281.309 265.45 281.303C265.286 281.297 265.148 281.234 265.036 281.114C264.656 280.678 264.202 280.35 263.674 280.13C263.146 279.91 262.574 279.8 261.958 279.8C261.502 279.8 261.068 279.873 260.656 280.019C260.244 280.165 259.904 280.39 259.636 280.694C259.368 280.998 259.234 281.398 259.234 281.894C259.258 282.358 259.417 282.737 259.711 283.031C260.005 283.325 260.398 283.567 260.89 283.757C261.382 283.947 261.932 284.124 262.54 284.288C263.056 284.416 263.547 284.565 264.013 284.735C264.479 284.905 264.893 285.122 265.255 285.386C265.617 285.65 265.905 285.983 266.119 286.385C266.333 286.787 266.44 287.292 266.44 287.9C266.44 288.608 266.245 289.217 265.855 289.727C265.465 290.237 264.943 290.628 264.289 290.9C263.635 291.172 262.908 291.308 262.108 291.308C261.248 291.308 260.412 291.141 259.6 290.807C258.788 290.473 258.07 289.914 257.446 289.13Z"/>
</g>
<g fill="#b2ebff" opacity="0" stroke="none">
<path d="M179.08 278.816C179.292 278.816 179.465 278.886 179.599 279.026C179.733 279.166 179.8 279.338 179.8 279.542L179.8 290.342C179.8 290.542 179.73 290.713 179.59 290.855C179.45 290.997 179.28 291.068 179.08 291.068C178.868 291.068 178.695 290.997 178.561 290.855C178.427 290.713 178.36 290.542 178.36 290.342L178.36 287.492L178.78 287.312C178.78 287.748 178.656 288.201 178.408 288.671C178.16 289.141 177.82 289.574 177.388 289.97C176.956 290.366 176.447 290.688 175.861 290.936C175.275 291.184 174.642 291.308 173.962 291.308C172.882 291.308 171.915 291.027 171.061 290.465C170.207 289.903 169.535 289.137 169.045 288.167C168.555 287.197 168.31 286.1 168.31 284.876C168.31 283.636 168.558 282.54 169.054 281.588C169.55 280.636 170.223 279.888 171.073 279.344C171.923 278.8 172.878 278.528 173.938 278.528C174.626 278.528 175.27 278.647 175.87 278.885C176.47 279.123 176.994 279.45 177.442 279.866C177.89 280.282 178.239 280.756 178.489 281.288C178.739 281.82 178.864 282.378 178.864 282.962L178.36 282.59L178.36 279.542C178.36 279.342 178.427 279.171 178.561 279.029C178.695 278.887 178.868 278.816 179.08 278.816ZM174.088 289.964C174.936 289.964 175.69 289.743 176.35 289.301C177.01 288.859 177.527 288.253 177.901 287.483C178.275 286.713 178.462 285.844 178.462 284.876C178.462 283.94 178.275 283.093 177.901 282.335C177.527 281.577 177.01 280.977 176.35 280.535C175.69 280.093 174.936 279.872 174.088 279.872C173.256 279.872 172.51 280.087 171.85 280.517C171.19 280.947 170.67 281.538 170.29 282.29C169.91 283.042 169.72 283.904 169.72 284.876C169.72 285.844 169.907 286.713 170.281 287.483C170.655 288.253 171.172 288.859 171.832 289.301C172.492 289.743 173.244 289.964 174.088 289.964Z"/>
<path d="M197.406 278.708C198.49 278.708 199.455 278.977 200.301 279.515C201.147 280.053 201.818 280.791 202.314 281.729C202.81 282.667 203.058 283.744 203.058 284.96C203.058 286.164 202.81 287.239 202.314 288.185C201.818 289.131 201.146 289.876 200.298 290.42C199.45 290.964 198.494 291.236 197.43 291.236C196.874 291.236 196.343 291.153 195.837 290.987C195.331 290.821 194.869 290.593 194.451 290.303C194.033 290.013 193.666 289.671 193.35 289.277C193.034 288.883 192.78 288.46 192.588 288.008L193.008 287.678L193.008 295.142C193.008 295.342 192.941 295.513 192.807 295.655C192.673 295.797 192.5 295.868 192.288 295.868C192.088 295.868 191.918 295.798 191.778 295.658C191.638 295.518 191.568 295.346 191.568 295.142L191.568 279.494C191.568 279.294 191.635 279.123 191.769 278.981C191.903 278.839 192.076 278.768 192.288 278.768C192.5 278.768 192.673 278.839 192.807 278.981C192.941 279.123 193.008 279.294 193.008 279.494L193.008 282.092L192.672 281.912C192.84 281.416 193.078 280.969 193.386 280.571C193.694 280.173 194.058 279.835 194.478 279.557C194.898 279.279 195.357 279.068 195.855 278.924C196.353 278.78 196.87 278.708 197.406 278.708ZM197.28 280.052C196.42 280.052 195.663 280.264 195.009 280.688C194.355 281.112 193.841 281.69 193.467 282.422C193.093 283.154 192.906 284 192.906 284.96C192.906 285.904 193.093 286.75 193.467 287.498C193.841 288.246 194.355 288.832 195.009 289.256C195.663 289.68 196.42 289.892 197.28 289.892C198.128 289.892 198.878 289.68 199.53 289.256C200.182 288.832 200.698 288.246 201.078 287.498C201.458 286.75 201.648 285.904 201.648 284.96C201.648 284.012 201.458 283.169 201.078 282.431C200.698 281.693 200.182 281.112 199.53 280.688C198.878 280.264 198.128 280.052 197.28 280.052Z"/>
<path d="M215.522 290.348C215.522 290.54 215.45 290.708 215.306 290.852C215.162 290.996 214.994 291.068 214.802 291.068C214.594 291.068 214.422 290.996 214.286 290.852C214.15 290.708 214.082 290.54 214.082 290.348L214.082 279.308C214.082 279.116 214.15 278.948 214.286 278.804C214.422 278.66 214.594 278.588 214.802 278.588C215.01 278.588 215.182 278.66 215.318 278.804C215.454 278.948 215.522 279.116 215.522 279.308L215.522 290.348ZM214.802 276.98C214.466 276.98 214.214 276.904 214.046 276.752C213.878 276.6 213.794 276.38 213.794 276.092L213.794 275.852C213.794 275.564 213.886 275.344 214.07 275.192C214.254 275.04 214.506 274.964 214.826 274.964C215.13 274.964 215.366 275.04 215.534 275.192C215.702 275.344 215.786 275.564 215.786 275.852L215.786 276.092C215.786 276.38 215.702 276.6 215.534 276.752C215.366 276.904 215.122 276.98 214.802 276.98Z"/>
</g>
</g>
</g>
</g>
</g>
</svg>
