<svg viewBox="0 0 200.306 47.4069" xmlns="http://www.w3.org/2000/svg">
<defs/>
<g id="Layer-1">
<g fill="#ffffff" opacity="1" stroke="none">
<path d="M13.5754 17.694L21.9724 17.694C22.2604 17.694 22.5019 17.796 22.6969 18C22.8919 18.204 22.9894 18.441 22.9894 18.711C22.9894 18.993 22.8919 19.23 22.6969 19.422C22.5019 19.614 22.2604 19.71 21.9724 19.71L13.5754 19.71C13.3054 19.71 13.0684 19.608 12.8644 19.404C12.6604 19.2 12.5584 18.963 12.5584 18.693C12.5584 18.411 12.6604 18.174 12.8644 17.982C13.0684 17.79 13.3054 17.694 13.5754 17.694ZM17.2924 12.6C17.6104 12.6 17.8684 12.7065 18.0664 12.9195C18.2644 13.1325 18.3634 13.389 18.3634 13.689L18.3634 31.761C18.3634 32.439 18.4564 32.9445 18.6424 33.2775C18.8284 33.6105 19.0669 33.8295 19.3579 33.9345C19.6489 34.0395 19.9354 34.092 20.2174 34.092C20.4154 34.092 20.5894 34.0605 20.7394 33.9975C20.8894 33.9345 21.0664 33.903 21.2704 33.903C21.4804 33.903 21.6649 33.9915 21.8239 34.1685C21.9829 34.3455 22.0624 34.566 22.0624 34.83C22.0624 35.16 21.8674 35.4375 21.4774 35.6625C21.0874 35.8875 20.6344 36 20.1184 36C19.8844 36 19.5514 35.985 19.1194 35.955C18.6874 35.925 18.2464 35.793 17.7964 35.559C17.3464 35.325 16.9684 34.9215 16.6624 34.3485C16.3564 33.7755 16.2034 32.946 16.2034 31.86L16.2034 13.689C16.2034 13.389 16.3099 13.1325 16.5229 12.9195C16.7359 12.7065 16.9924 12.6 17.2924 12.6Z"/>
<path d="M47.0694 17.622C47.3874 17.622 47.6469 17.727 47.8479 17.937C48.0489 18.147 48.1494 18.405 48.1494 18.711L48.1494 34.911C48.1494 35.211 48.0444 35.4675 47.8344 35.6805C47.6244 35.8935 47.3694 36 47.0694 36C46.7514 36 46.4919 35.8935 46.2909 35.6805C46.0899 35.4675 45.9894 35.211 45.9894 34.911L45.9894 30.636L46.6194 30.366C46.6194 31.02 46.4334 31.6995 46.0614 32.4045C45.6894 33.1095 45.1794 33.759 44.5314 34.353C43.8834 34.947 43.1199 35.43 42.2409 35.802C41.3619 36.174 40.4124 36.36 39.3924 36.36C37.7724 36.36 36.3219 35.9385 35.0409 35.0955C33.7599 34.2525 32.7519 33.1035 32.0169 31.6485C31.2819 30.1935 30.9144 28.548 30.9144 26.712C30.9144 24.852 31.2864 23.208 32.0304 21.78C32.7744 20.352 33.7839 19.23 35.0589 18.414C36.3339 17.598 37.7664 17.19 39.3564 17.19C40.3884 17.19 41.3544 17.3685 42.2544 17.7255C43.1544 18.0825 43.9404 18.573 44.6124 19.197C45.2844 19.821 45.8079 20.532 46.1829 21.33C46.5579 22.128 46.7454 22.965 46.7454 23.841L45.9894 23.283L45.9894 18.711C45.9894 18.411 46.0899 18.1545 46.2909 17.9415C46.4919 17.7285 46.7514 17.622 47.0694 17.622ZM39.5814 34.344C40.8534 34.344 41.9844 34.0125 42.9744 33.3495C43.9644 32.6865 44.7399 31.7775 45.3009 30.6225C45.8619 29.4675 46.1424 28.164 46.1424 26.712C46.1424 25.308 45.8619 24.0375 45.3009 22.9005C44.7399 21.7635 43.9644 20.8635 42.9744 20.2005C41.9844 19.5375 40.8534 19.206 39.5814 19.206C38.3334 19.206 37.2144 19.5285 36.2244 20.1735C35.2344 20.8185 34.4544 21.705 33.8844 22.833C33.3144 23.961 33.0294 25.254 33.0294 26.712C33.0294 28.164 33.3099 29.4675 33.8709 30.6225C34.4319 31.7775 35.2074 32.6865 36.1974 33.3495C37.1874 34.0125 38.3154 34.344 39.5814 34.344Z"/>
<path d="M57.7664 33.093C57.5804 32.793 57.4949 32.5095 57.5099 32.2425C57.5249 31.9755 57.6704 31.749 57.9464 31.563C58.1324 31.413 58.3559 31.347 58.6169 31.365C58.8779 31.383 59.1134 31.506 59.3234 31.734C59.9654 32.574 60.7469 33.249 61.6679 33.759C62.5889 34.269 63.6884 34.524 64.9664 34.524C65.6504 34.518 66.3209 34.4055 66.9779 34.1865C67.6349 33.9675 68.1794 33.6225 68.6114 33.1515C69.0434 32.6805 69.2594 32.079 69.2594 31.347C69.2594 30.603 69.0434 30.0075 68.6114 29.5605C68.1794 29.1135 67.6199 28.755 66.9329 28.485C66.2459 28.215 65.5154 27.984 64.7414 27.792C63.9254 27.576 63.1364 27.3315 62.3744 27.0585C61.6124 26.7855 60.9344 26.439 60.3404 26.019C59.7464 25.599 59.2724 25.086 58.9184 24.48C58.5644 23.874 58.3874 23.142 58.3874 22.284C58.3874 21.282 58.6604 20.397 59.2064 19.629C59.7524 18.861 60.5009 18.2625 61.4519 17.8335C62.4029 17.4045 63.4754 17.19 64.6694 17.19C65.2874 17.19 65.9414 17.2665 66.6314 17.4195C67.3214 17.5725 68.0024 17.829 68.6744 18.189C69.3464 18.549 69.9524 19.044 70.4924 19.674C70.7024 19.872 70.8089 20.1105 70.8119 20.3895C70.8149 20.6685 70.6904 20.922 70.4384 21.15C70.2404 21.294 70.0184 21.3615 69.7724 21.3525C69.5264 21.3435 69.3194 21.249 69.1514 21.069C68.5814 20.415 67.9004 19.923 67.1084 19.593C66.3164 19.263 65.4584 19.098 64.5344 19.098C63.8504 19.098 63.1994 19.2075 62.5814 19.4265C61.9634 19.6455 61.4534 19.983 61.0514 20.439C60.6494 20.895 60.4484 21.495 60.4484 22.239C60.4844 22.935 60.7229 23.5035 61.1639 23.9445C61.6049 24.3855 62.1944 24.7485 62.9324 25.0335C63.6704 25.3185 64.4954 25.584 65.4074 25.83C66.1814 26.022 66.9179 26.2455 67.6169 26.5005C68.3159 26.7555 68.9369 27.081 69.4799 27.477C70.0229 27.873 70.4549 28.3725 70.7759 28.9755C71.0969 29.5785 71.2574 30.336 71.2574 31.248C71.2574 32.31 70.9649 33.2235 70.3799 33.9885C69.7949 34.7535 69.0119 35.34 68.0309 35.748C67.0499 36.156 65.9594 36.36 64.7594 36.36C63.4694 36.36 62.2154 36.1095 60.9974 35.6085C59.7794 35.1075 58.7024 34.269 57.7664 33.093Z"/>
<path d="M81.9994 36C81.6814 36 81.4219 35.8935 81.2209 35.6805C81.0199 35.4675 80.9194 35.211 80.9194 34.911L80.9194 10.449C80.9194 10.149 81.0199 9.8925 81.2209 9.6795C81.4219 9.4665 81.6814 9.36 81.9994 9.36C82.3174 9.36 82.5769 9.4665 82.7779 9.6795C82.9789 9.8925 83.0794 10.149 83.0794 10.449L83.0794 34.911C83.0794 35.211 82.9789 35.4675 82.7779 35.6805C82.5769 35.8935 82.3174 36 81.9994 36ZM94.2304 17.55C94.5124 17.55 94.7584 17.661 94.9684 17.883C95.1784 18.105 95.2834 18.351 95.2834 18.621C95.2834 18.927 95.1484 19.197 94.8784 19.431L82.8004 29.727L82.7014 27.189L93.4834 17.883C93.7054 17.661 93.9544 17.55 94.2304 17.55ZM94.5274 35.991C94.2274 35.991 93.9604 35.868 93.7264 35.622L85.5274 26.892L87.1564 25.434L95.2834 34.11C95.5054 34.338 95.6164 34.608 95.6164 34.92C95.6164 35.256 95.4829 35.5185 95.2159 35.7075C94.9489 35.8965 94.7194 35.991 94.5274 35.991Z"/>
<path d="M107.168 34.911C107.168 35.211 107.062 35.4675 106.849 35.6805C106.636 35.8935 106.379 36 106.079 36C105.767 36 105.511 35.8935 105.31 35.6805C105.109 35.4675 105.008 35.211 105.008 34.911L105.008 10.449C105.008 10.149 105.115 9.8925 105.328 9.6795C105.541 9.4665 105.797 9.36 106.097 9.36C106.415 9.36 106.673 9.4665 106.871 9.6795C107.069 9.8925 107.168 10.149 107.168 10.449L107.168 34.911Z"/>
<path d="M131.23 17.28C131.548 17.28 131.808 17.3865 132.009 17.5995C132.21 17.8125 132.31 18.069 132.31 18.369L132.31 34.236C132.31 36.174 131.928 37.8105 131.163 39.1455C130.398 40.4805 129.364 41.49 128.062 42.174C126.76 42.858 125.281 43.2 123.625 43.2C122.605 43.2 121.659 43.086 120.786 42.858C119.913 42.63 119.2 42.342 118.648 41.994C118.342 41.826 118.119 41.6205 117.978 41.3775C117.837 41.1345 117.823 40.875 117.937 40.599C118.063 40.281 118.254 40.0635 118.509 39.9465C118.764 39.8295 119.02 39.84 119.278 39.978C119.68 40.188 120.27 40.4505 121.047 40.7655C121.824 41.0805 122.701 41.238 123.679 41.238C124.999 41.238 126.142 40.9575 127.108 40.3965C128.074 39.8355 128.824 39.0345 129.358 37.9935C129.892 36.9525 130.159 35.712 130.159 34.272L130.159 31.671L130.402 32.562C130.048 33.3 129.538 33.954 128.872 34.524C128.206 35.094 127.449 35.5425 126.6 35.8695C125.751 36.1965 124.849 36.36 123.895 36.36C122.461 36.36 121.27 36.066 120.322 35.478C119.374 34.89 118.668 34.0785 118.203 33.0435C117.738 32.0085 117.505 30.801 117.505 29.421L117.505 18.369C117.505 18.069 117.606 17.8125 117.807 17.5995C118.008 17.3865 118.267 17.28 118.585 17.28C118.903 17.28 119.163 17.3865 119.364 17.5995C119.565 17.8125 119.665 18.069 119.665 18.369L119.665 29.097C119.665 30.765 120.034 32.0565 120.772 32.9715C121.51 33.8865 122.707 34.344 124.363 34.344C125.383 34.344 126.33 34.101 127.203 33.615C128.076 33.129 128.785 32.4825 129.331 31.6755C129.877 30.8685 130.15 30.009 130.15 29.097L130.15 18.369C130.15 18.069 130.251 17.8125 130.452 17.5995C130.653 17.3865 130.912 17.28 131.23 17.28Z"/>
<path d="M151.665 17.19C153.243 17.19 154.503 17.508 155.445 18.144C156.387 18.78 157.068 19.6395 157.488 20.7225C157.908 21.8055 158.118 23.013 158.118 24.345L158.118 34.911C158.118 35.211 158.013 35.4675 157.803 35.6805C157.593 35.8935 157.338 36 157.038 36C156.72 36 156.461 35.8935 156.26 35.6805C156.059 35.4675 155.958 35.211 155.958 34.911L155.958 24.453C155.958 23.481 155.802 22.6005 155.49 21.8115C155.178 21.0225 154.673 20.391 153.974 19.917C153.275 19.443 152.343 19.206 151.179 19.206C150.147 19.206 149.171 19.443 148.25 19.917C147.329 20.391 146.577 21.0225 145.995 21.8115C145.413 22.6005 145.122 23.481 145.122 24.453L145.122 34.911C145.122 35.211 145.017 35.4675 144.807 35.6805C144.597 35.8935 144.342 36 144.042 36C143.724 36 143.465 35.8935 143.264 35.6805C143.063 35.4675 142.962 35.211 142.962 34.911L142.962 18.801C142.962 18.501 143.067 18.2445 143.277 18.0315C143.487 17.8185 143.742 17.712 144.042 17.712C144.36 17.712 144.62 17.8185 144.821 18.0315C145.022 18.2445 145.122 18.501 145.122 18.801L145.122 21.834L144.312 23.103C144.366 22.353 144.615 21.6225 145.059 20.9115C145.503 20.2005 146.073 19.5645 146.769 19.0035C147.465 18.4425 148.238 18 149.087 17.676C149.936 17.352 150.795 17.19 151.665 17.19Z"/>
<path d="M168.275 17.415C168.629 17.415 168.92 17.571 169.148 17.883L181.901 34.389C182.051 34.575 182.126 34.791 182.126 35.037C182.126 35.331 182.02 35.586 181.807 35.802C181.594 36.018 181.346 36.126 181.064 36.126C180.728 36.126 180.428 35.967 180.164 35.649L167.384 19.17C167.234 18.984 167.159 18.768 167.159 18.522C167.159 18.204 167.273 17.94 167.501 17.73C167.729 17.52 167.987 17.415 168.275 17.415ZM168.284 36.117C168.038 36.117 167.803 36.03 167.578 35.856C167.353 35.682 167.24 35.439 167.24 35.127C167.24 34.881 167.321 34.659 167.483 34.461L173.585 26.649L174.773 28.386L169.148 35.676C168.926 35.97 168.638 36.117 168.284 36.117ZM181.055 17.415C181.379 17.415 181.631 17.5095 181.811 17.6985C181.991 17.8875 182.081 18.108 182.081 18.36C182.081 18.474 182.059 18.5925 182.014 18.7155C181.969 18.8385 181.904 18.954 181.82 19.062L175.736 27.036L174.602 25.308L180.164 17.901C180.428 17.577 180.725 17.415 181.055 17.415Z"/>
</g>
</g>
</svg>
